<svg xmlns="http://www.w3.org/2000/svg" height="20" viewBox="0 96 960 960" width="20"><path fill="#FFFFFF" d="m479 976-10.5-120H458q-140 0-239-99t-99-241q0-142 99-241t241-99q71 0 132.5 26.5t107.682 73q46.181 46.5 72.5 108Q799 445 799 516q0 144-85.5 266.5T479 976Zm-19-244q17.415 0 29.707-12.293Q502 707.415 502 690t-12.293-29.707Q477.415 648 460 648t-29.707 12.293Q418 672.585 418 690t12.293 29.707Q442.585 732 460 732Zm-.983-125q11.373 0 20.678-8Q489 591 493 577q4-13 13-25t27-30q23-23 33-42.385 10-19.384 10-41.538Q576 391 545 363.5T463 336q-32 0-59.5 14.5T359 390q-8 11-2.5 24.5t19.5 19.056q10 4.444 21.111.577 11.111-3.866 20-14.5Q426 409 437.5 403.5t25.795-5.5Q486 398 499.5 408.5T513 438q0 14-8.5 28T478 496q-24 21-34.5 38t-13.833 43q-1.667 12 7.121 21t22.229 9ZM558 772v56q77-64 117-144t40-168q0-106-74.5-181T460 260q-106 0-181 74.272-75 74.273-75 181.5Q204 623 278.338 697.5 352.677 772 460 772h98Zm-98-228Z"/></svg>