<svg width="36" height="36" viewBox="0 0 36 36" fill="none" xmlns="http://www.w3.org/2000/svg">
<path d="M22 35.45V32.35C25.2333 31.4167 27.875 29.625 29.925 26.975C31.975 24.325 33 21.3167 33 17.95C33 14.5833 31.9833 11.5667 29.95 8.9C27.9167 6.23333 25.2667 4.45 22 3.55V0.449997C26.1333 1.38333 29.5 3.475 32.1 6.725C34.7 9.975 36 13.7167 36 17.95C36 22.1833 34.7 25.925 32.1 29.175C29.5 32.425 26.1333 34.5167 22 35.45ZM0 24V12H8L18 2V34L8 24H0ZM21 26.4V9.55C22.8333 10.1167 24.2917 11.1833 25.375 12.75C26.4583 14.3167 27 16.0667 27 18C27 19.9 26.45 21.6333 25.35 23.2C24.25 24.7667 22.8 25.8333 21 26.4ZM15 9.6L9.35 15H3V21H9.35L15 26.45V9.6Z" fill="black"/>
</svg>
