<svg xmlns="http://www.w3.org/2000/svg" height="20" viewBox="0 96 960 960" width="20"><path fill="#FFFFFF" d="m830 986-95-95q-21 14-45 20.5t-50 6.5q-76 0-129-53t-53-129q0-76 53-129t129-53q76 0 129 53t53 129q0 26-6.5 50T795 832l95 94q14 14 14 30t-14 30q-13 13-30 13t-30-13ZM640 834q41 0 69.5-28.5T738 736q0-41-28.5-69.5T640 638q-41 0-69.5 28.5T542 736q0 41 28.5 69.5T640 834ZM73 802q-14-9-17.5-26t5.5-31l152-242q11-18 32-20t35 15l83 97 126-205q12-20 34.5-20t35.5 19l71 105q-23 2-45 6.5T543 515l-17-25-122 197q-11 18-32 20t-35-15l-84-97-120 195q-9 15-27 18.5T73 802Zm664-287q-20-10-42-14.5t-45-6.5l177-280q10-15 27.5-19t32.5 7q14 10 17.5 26.5T899 259L737 515Z"/></svg>