<svg xmlns="http://www.w3.org/2000/svg" height="20" viewBox="0 96 960 960" width="20"><path fill="#FFFFFF" d="M480 924q-10.526 0-20.526-2.5T440 914L246 809q-20-11-32-31t-12-42.748V545.354l-95.103-52.42Q96 487 90.5 477 85 467 85 456t5.5-21q5.5-10 16.342-15.905L440 238q9.474-5 19.474-7.5T480 228q10.526 0 20.526 2.5T520 238l378 206q11 5 16.5 15.5t5.5 21.384V734.18q0 16.82-12.5 29.32T878 776q-17 0-29.5-12.5T836 734.244V501l-78 44v190.214Q758 758 746 778t-32 31L520 914q-9.474 5-19.474 7.5T480 924Zm0-324 266-144-266-144-266 144 266 144Zm0 240 194-104V589l-153 85q-10 5-20 8t-21 3q-11 0-21-3t-20-8l-153-85v147l194 104Zm0-240Zm0 127Zm0 0Z"/></svg>