<svg width="256" height="256" viewBox="0 0 256 256" fill="none" xmlns="http://www.w3.org/2000/svg">
<rect width="256" height="256" rx="36" fill="#FF0000"/>
<path d="M127.023 207C114.284 207 103.21 204.898 93.8 200.694C84.3905 196.49 76.7905 190.764 71 183.515L89.8914 162.64C95.3924 168.729 101.4 173.223 107.914 176.122C114.573 179.021 121.305 180.471 128.109 180.471C135.926 180.471 141.861 178.731 145.914 175.252C149.968 171.773 151.994 166.771 151.994 160.248C151.994 154.884 150.402 150.825 147.217 148.071C144.177 145.316 138.966 143.359 131.583 142.199L115.731 139.59C102.124 137.271 92.28 132.269 86.2 124.586C80.12 116.758 77.08 107.262 77.08 96.0997C77.08 81.458 81.8571 70.1505 91.4114 62.1773C100.966 54.0591 114.356 50 131.583 50C143.309 50 153.514 51.8121 162.2 55.4363C170.886 59.0605 177.907 63.9894 183.263 70.223L164.806 90.8809C160.752 86.3869 155.975 82.9077 150.474 80.4432C144.973 77.8338 138.749 76.5291 131.8 76.5291C117.179 76.5291 109.869 82.5452 109.869 94.5776C109.869 99.7964 111.461 103.711 114.646 106.32C117.975 108.929 123.331 110.886 130.714 112.191L146.566 115.018C158.87 117.193 168.352 121.831 175.011 128.935C181.67 136.038 185 145.606 185 157.639C185 164.742 183.77 171.338 181.309 177.427C178.848 183.37 175.156 188.589 170.234 193.083C165.312 197.432 159.232 200.839 151.994 203.303C144.901 205.768 136.577 207 127.023 207Z" fill="white"/>
</svg>
