<svg width="187" height="107" viewBox="0 0 187 107" fill="none" xmlns="http://www.w3.org/2000/svg">
<path d="M132.188 77.7401C139.354 77.2117 144.921 74.944 148.889 70.937C152.857 66.93 154.841 61.492 154.841 54.6228C154.841 49.9554 153.953 46.0144 152.176 42.8C150.459 39.5856 148.06 37.1198 144.981 35.4025C141.901 33.7292 138.407 32.8926 134.498 32.8926C131.241 32.8045 128.398 33.3109 125.97 34.4117C123.541 35.5566 121.439 37.1198 119.662 39.1012C117.945 41.0827 116.435 43.3724 115.132 45.9704C113.888 48.5683 112.822 51.3424 111.933 54.2926L108.025 66.4457C106.248 72.3461 103.879 77.7621 100.918 82.6938C97.9566 87.6255 94.3143 91.8967 89.991 95.5074C85.6676 99.1181 80.5743 101.914 74.7111 103.896C68.848 105.921 62.1261 106.956 54.5454 107C43.4112 106.956 33.7577 104.842 25.5848 100.659C17.4711 96.5202 11.1637 90.5317 6.66269 82.6938C2.22089 74.9 -1.90106e-06 65.499 -1.41988e-06 54.4907C-9.42543e-07 43.5706 2.25051 34.0595 6.75154 25.9574C11.2526 17.8994 17.9153 11.6027 26.7397 7.06728C35.6233 2.57592 46.6093 0.220159 59.6979 -5.56455e-06L59.6979 27.6747C53.5978 27.9829 48.5045 29.2819 44.4181 31.5716C40.3908 33.9053 37.3408 37.0097 35.2679 40.8846C33.2543 44.8035 32.2475 49.2288 32.2475 54.1605C32.2475 59.0041 33.1951 63.2093 35.0903 66.7759C36.9854 70.3866 39.6209 73.1827 42.9967 75.1642C46.3724 77.1457 50.2516 78.1364 54.6342 78.1364C58.7207 78.1364 62.1557 77.2337 64.9392 75.4284C67.7227 73.6671 70.0917 71.0691 72.0461 67.6346C74.0005 64.244 75.7772 60.0829 77.3762 55.1512L82.3511 40.4222C86.0822 29.0177 91.9157 20.013 99.8518 13.408C107.788 6.80308 118.478 3.52263 131.922 3.56667C142.937 3.52263 152.561 5.70226 160.793 10.1056C169.025 14.5529 175.451 20.6514 180.071 28.4012C184.69 36.151 187 44.9576 187 54.821C187 64.8605 184.69 73.6231 180.071 81.1086C175.451 88.6383 169.025 94.4947 160.793 98.6778C152.561 102.861 143.026 105.019 132.188 105.151L132.188 77.7401Z" fill="#D83A3A"/>
</svg>
