<svg width="20" height="20" viewBox="0 0 20 20" fill="none" xmlns="http://www.w3.org/2000/svg">
<g clip-path="url(#clip0_14_201)">
<rect width="20" height="20" rx="2" fill="#4C4C4C"/>
<path d="M17.1875 0H2.8125C1.2592 0 0 1.2592 0 2.8125V17.1875C0 18.7408 1.2592 20 2.8125 20H17.1875C18.7408 20 20 18.7408 20 17.1875V2.8125C20 1.2592 18.7408 0 17.1875 0Z" fill="#4C4C4C"/>
<path d="M9.92367 16.1719C8.92844 16.1719 8.06328 16.0077 7.32813 15.6792C6.59301 15.3508 5.99926 14.9034 5.54688 14.3371L7.02277 12.7062C7.45253 13.182 7.92188 13.533 8.43078 13.7595C8.95102 13.986 9.47695 14.0993 10.0085 14.0993C10.6192 14.0993 11.0829 13.9634 11.3995 13.6916C11.7163 13.4198 11.8745 13.029 11.8745 12.5194C11.8745 12.1003 11.7502 11.7832 11.5013 11.568C11.2638 11.3528 10.8567 11.1999 10.2799 11.1093L9.04148 10.9055C7.97844 10.7243 7.20937 10.3335 6.73437 9.73328C6.25937 9.12172 6.02188 8.37984 6.02188 7.50779C6.02188 6.36391 6.39509 5.48051 7.14152 4.8576C7.88797 4.22337 8.93406 3.90625 10.2799 3.90625C11.196 3.90625 11.9933 4.04782 12.6719 4.33096C13.3505 4.6141 13.899 4.99917 14.3174 5.48617L12.8755 7.10007C12.5587 6.74898 12.1855 6.47716 11.7558 6.28462C11.326 6.08077 10.8398 5.97884 10.2969 5.97884C9.15461 5.97884 8.58352 6.44884 8.58352 7.38887C8.58352 7.79659 8.70789 8.10242 8.95672 8.30625C9.2168 8.51008 9.63523 8.66297 10.212 8.76492L11.4505 8.98578C12.4117 9.1557 13.1525 9.51805 13.6727 10.073C14.193 10.628 14.4531 11.3755 14.4531 12.3155C14.4531 12.8705 14.357 13.3858 14.1648 13.8615C13.9725 14.3258 13.6841 14.7335 13.2995 15.0846C12.915 15.4244 12.44 15.6905 11.8745 15.883C11.3204 16.0756 10.6701 16.1719 9.92367 16.1719Z" fill="white"/>
</g>
<defs>
<clipPath id="clip0_14_201">
<rect width="20" height="20" rx="2" fill="white"/>
</clipPath>
</defs>
</svg>
